<mxfile host="app.diagrams.net" agent="Mozilla/5.0 (Windows NT 10.0; Win64; x64) AppleWebKit/537.36 (KHTML, like Gecko) Chrome/138.0.0.0 Safari/537.36" version="27.1.6">
  <diagram name="Page-1" id="6iL-IbI7YEmq0DZORB_5">
    <mxGraphModel dx="1426" dy="743" grid="1" gridSize="10" guides="1" tooltips="1" connect="1" arrows="1" fold="1" page="1" pageScale="1" pageWidth="850" pageHeight="1100" math="0" shadow="0">
      <root>
        <mxCell id="0" />
        <mxCell id="1" parent="0" />
        <mxCell id="A9AV7UKq8lN9NTH1w0oA-6" style="edgeStyle=orthogonalEdgeStyle;rounded=0;orthogonalLoop=1;jettySize=auto;html=1;entryX=0.5;entryY=0;entryDx=0;entryDy=0;strokeColor=#BCD245;strokeWidth=2;" edge="1" parent="1" source="A9AV7UKq8lN9NTH1w0oA-1" target="A9AV7UKq8lN9NTH1w0oA-2">
          <mxGeometry relative="1" as="geometry" />
        </mxCell>
        <mxCell id="A9AV7UKq8lN9NTH1w0oA-1" value="&lt;font style=&quot;color: rgb(255, 255, 255); font-size: 14px;&quot;&gt;The user&lt;/font&gt;&lt;div&gt;&lt;font style=&quot;color: rgb(255, 255, 255); font-size: 14px;&quot;&gt;&amp;nbsp;initiates a payment&amp;nbsp;&lt;/font&gt;&lt;span style=&quot;color: light-dark(rgb(255, 255, 255), rgb(18, 18, 18)); font-size: 14px; background-color: transparent;&quot;&gt;on the merchant&#39;s&amp;nbsp;&lt;/span&gt;&lt;/div&gt;&lt;div&gt;&lt;font style=&quot;color: rgb(255, 255, 255); font-size: 14px;&quot;&gt;website.&lt;/font&gt;&lt;/div&gt;" style="ellipse;whiteSpace=wrap;html=1;aspect=fixed;fillColor=#BCD245;strokeColor=none;" vertex="1" parent="1">
          <mxGeometry x="320" y="80" width="120" height="120" as="geometry" />
        </mxCell>
        <mxCell id="A9AV7UKq8lN9NTH1w0oA-7" style="edgeStyle=orthogonalEdgeStyle;rounded=0;orthogonalLoop=1;jettySize=auto;html=1;exitX=0.5;exitY=1;exitDx=0;exitDy=0;strokeWidth=2;strokeColor=#BCD245;" edge="1" parent="1" source="A9AV7UKq8lN9NTH1w0oA-2" target="A9AV7UKq8lN9NTH1w0oA-3">
          <mxGeometry relative="1" as="geometry" />
        </mxCell>
        <mxCell id="A9AV7UKq8lN9NTH1w0oA-2" value="&lt;font style=&quot;font-size: 14px;&quot;&gt;PayU processes the transaction and requests authentication (e.g., 3DS challenge).&lt;/font&gt;" style="rounded=1;whiteSpace=wrap;html=1;strokeColor=#BCD245;strokeWidth=2;" vertex="1" parent="1">
          <mxGeometry x="220" y="240" width="320" height="70" as="geometry" />
        </mxCell>
        <mxCell id="A9AV7UKq8lN9NTH1w0oA-8" style="edgeStyle=orthogonalEdgeStyle;rounded=0;orthogonalLoop=1;jettySize=auto;html=1;entryX=0.5;entryY=0;entryDx=0;entryDy=0;strokeWidth=2;strokeColor=#BCD245;" edge="1" parent="1" source="A9AV7UKq8lN9NTH1w0oA-3" target="A9AV7UKq8lN9NTH1w0oA-4">
          <mxGeometry relative="1" as="geometry" />
        </mxCell>
        <mxCell id="A9AV7UKq8lN9NTH1w0oA-3" value="&lt;font style=&quot;font-size: 14px;&quot;&gt;PayU returns the authentication URL in the &lt;font face=&quot;Lucida Console&quot;&gt;THREEDS_AUTH_REDIRECT_URL&lt;/font&gt; field of&amp;nbsp;&lt;/font&gt;&lt;div&gt;&lt;font style=&quot;font-size: 14px;&quot;&gt;the payment response.&lt;/font&gt;&lt;div&gt;&lt;span style=&quot;font-size: 14px;&quot;&gt;&lt;br&gt;&lt;/span&gt;&lt;/div&gt;&lt;div&gt;&lt;span style=&quot;font-size: 14px;&quot;&gt;The integration then redirects the user to&amp;nbsp;&lt;/span&gt;&lt;/div&gt;&lt;div&gt;&lt;span style=&quot;font-size: 14px;&quot;&gt;this URL. The page contains an iframe that&amp;nbsp;&lt;/span&gt;&lt;/div&gt;&lt;div&gt;&lt;span style=&quot;font-size: 14px;&quot;&gt;loads the&amp;nbsp;&lt;/span&gt;&lt;span style=&quot;font-size: 14px; background-color: transparent; color: light-dark(rgb(0, 0, 0), rgb(255, 255, 255));&quot;&gt;bank&#39;s interface, where the user completes&amp;nbsp;&lt;/span&gt;&lt;span style=&quot;font-size: 14px; background-color: transparent; color: light-dark(rgb(0, 0, 0), rgb(255, 255, 255));&quot;&gt;the authentication challenge.&lt;/span&gt;&lt;/div&gt;&lt;/div&gt;" style="rounded=1;whiteSpace=wrap;html=1;strokeColor=#BCD245;strokeWidth=2;" vertex="1" parent="1">
          <mxGeometry x="220" y="350" width="320" height="170" as="geometry" />
        </mxCell>
        <mxCell id="A9AV7UKq8lN9NTH1w0oA-9" style="edgeStyle=orthogonalEdgeStyle;rounded=0;orthogonalLoop=1;jettySize=auto;html=1;exitX=0.5;exitY=1;exitDx=0;exitDy=0;entryX=0.5;entryY=0;entryDx=0;entryDy=0;strokeWidth=2;strokeColor=#BCD245;" edge="1" parent="1" source="A9AV7UKq8lN9NTH1w0oA-4" target="A9AV7UKq8lN9NTH1w0oA-5">
          <mxGeometry relative="1" as="geometry" />
        </mxCell>
        <mxCell id="A9AV7UKq8lN9NTH1w0oA-11" style="edgeStyle=orthogonalEdgeStyle;rounded=0;orthogonalLoop=1;jettySize=auto;html=1;entryX=0;entryY=0.5;entryDx=0;entryDy=0;strokeWidth=2;strokeColor=#BCD245;dashed=1;endArrow=none;startFill=0;" edge="1" parent="1" source="A9AV7UKq8lN9NTH1w0oA-4" target="A9AV7UKq8lN9NTH1w0oA-10">
          <mxGeometry relative="1" as="geometry" />
        </mxCell>
        <mxCell id="A9AV7UKq8lN9NTH1w0oA-4" value="&lt;font style=&quot;font-size: 14px;&quot;&gt;Once the authentication is complete, the&lt;/font&gt;&lt;div&gt;&lt;font style=&quot;font-size: 14px;&quot;&gt;integration redirects the user to the URL&lt;/font&gt;&lt;/div&gt;&lt;div&gt;&lt;font style=&quot;font-size: 14px;&quot;&gt;the merchant defined in the&lt;/font&gt;&lt;/div&gt;&lt;div&gt;&lt;font style=&quot;font-size: 14px;&quot;&gt;&lt;font face=&quot;Lucida Console&quot;&gt;RESPONSE_URL&lt;/font&gt; parameter.&lt;/font&gt;&lt;/div&gt;" style="rounded=1;whiteSpace=wrap;html=1;strokeColor=#BCD245;strokeWidth=2;" vertex="1" parent="1">
          <mxGeometry x="240" y="560" width="280" height="100" as="geometry" />
        </mxCell>
        <mxCell id="A9AV7UKq8lN9NTH1w0oA-5" value="&lt;font color=&quot;#ffffff&quot;&gt;&lt;span style=&quot;font-size: 14px;&quot;&gt;The merchant displays the payment&lt;/span&gt;&lt;/font&gt;&lt;div&gt;&lt;font color=&quot;#ffffff&quot;&gt;&lt;span style=&quot;font-size: 14px;&quot;&gt;result to the user on their website.&lt;/span&gt;&lt;/font&gt;&lt;/div&gt;" style="rounded=1;whiteSpace=wrap;html=1;strokeColor=none;strokeWidth=2;fillColor=#BCD245;" vertex="1" parent="1">
          <mxGeometry x="260" y="700" width="240" height="70" as="geometry" />
        </mxCell>
        <mxCell id="A9AV7UKq8lN9NTH1w0oA-10" value="&lt;div&gt;&lt;font style=&quot;font-size: 14px; color: rgb(255, 255, 255);&quot;&gt;&lt;font face=&quot;Lucida Console&quot;&gt;notifyUrl&lt;/font&gt;: Simultaneously with the redirection, the integration sends a&amp;nbsp;&lt;/font&gt;&lt;/div&gt;&lt;div&gt;&lt;font style=&quot;font-size: 14px; color: rgb(255, 255, 255);&quot;&gt;webhook to the merchant&#39;s server&amp;nbsp;&lt;/font&gt;&lt;/div&gt;&lt;div&gt;&lt;font style=&quot;font-size: 14px; color: rgb(255, 255, 255);&quot;&gt;containing the final transaction status (approved or rejected).&lt;/font&gt;&lt;/div&gt;" style="rounded=1;whiteSpace=wrap;html=1;strokeColor=none;strokeWidth=2;fillColor=#808080;" vertex="1" parent="1">
          <mxGeometry x="590" y="550" width="260" height="120" as="geometry" />
        </mxCell>
      </root>
    </mxGraphModel>
  </diagram>
</mxfile>
